<?xml version="1.0" encoding="UTF-8"?>
<svg id="Layer_1" xmlns="http://www.w3.org/2000/svg" version="1.1" viewBox="0 0 32 32">
  <!-- Generator: Adobe Illustrator 29.3.1, SVG Export Plug-In . SVG Version: 2.1.0 Build 151)  -->
  <g id="filledPath">
    <path d="M32,15h-11s8-5.9,8-5.9h-3.5l-3.5,2.5h0c-.1.1-.4.3-.6.4l.6-.4h0l-3.3,2.4v-4.9h-2v4.9h0l-5.2-3.8c-1.4-1-2.9-1.1-2.9-1.1H0v2h8.8l1.6.9H0v2h13.3l1.3.9H0v2h14.6l-1.3.9H0v2h10.4l-1.6.9H0v2h8.7s1.5-.1,2.9-1.1l5.2-3.8h0v4.9h2v-4.9h0l5.2,3.8c1.4,1,2.9,1.1,2.9,1.1h5.1v-2h-4.5c-.7,0-2-.5-2.8-1.1l-3.7-2.7h11v-2h0Z"/>
  </g>
</svg>